# xmcd
# 
# Track frame offsets:
#     150
#     26755
#     50218
#     73853
# 
# Disc length: 1246
# 
# Revision: 1
# Processed by: cddbd v1.5.2PL0 Copyright (c) Steve Scherf et al.
# Submitted via: BonkEnc v1.0beta4
# 
DISCID=3a04dc04
DTITLE=SMAP - KAIZOKU BANG!
DYEAR=2005
DGENRE=JPop
TTITLE0=はだかの王様〜シブトクつよく〜 (SPACE COWBOY REMIX)
TTITLE1=ダイナマイト (MJ COLE REMIX)
TTITLE2=SHAKE (BOOM BOOM SATELLITES REMIX)
TTITLE3=オリジナルスマイル／青いイナズマ (Phasio REMIX)
EXTD=YEAR: 2005
EXTT0=
EXTT1=
EXTT2=
EXTT3=
PLAYORDER=
